{
  "accessors": [
    {
      "bufferView": 1,
      "componentType": 5126,
      "count": 3774,
      "max": [
        1.0777764320373535,
        -0.61190491914749146,
        2.1685826778411865
      ],
      "min": [
        -1.0777764320373535,
        -1.2386465072631836,
        1.8421133756637573
      ],
      "type": "VEC3"
    },
    {
      "bufferView": 1,
      "byteOffset": 45288,
      "componentType": 5126,
      "count": 3774,
      "max": [
        0.99893707036972046,
        0.99316328763961792,
        0.99998605251312256
      ],
      "min": [
        -0.99707317352294922,
        -0.98838257789611816,
        -0.99955427646636963
      ],
      "type": "VEC3"
    },
    {
      "bufferView": 2,
      "componentType": 5126,
      "count": 3774,
      "max": [
        0,
        0,
        0,
        1
      ],
      "min": [
        0,
        0,
        0,
        1
      ],
      "type": "VEC4"
    },
    {
      "bufferView": 0,
      "componentType": 5125,
      "count": 17808,
      "max": [
        3773
      ],
      "min": [
        0
      ],
      "type": "SCALAR"
    },
    {
      "bufferView": 1,
      "byteOffset": 90576,
      "componentType": 5126,
      "count": 18529,
      "max": [
        1.766605019569397,
        1.1857154369354248,
        3.2724871635437012
      ],
      "min": [
        -1.2400623559951782,
        -1.2401237487792969,
        0.15013678371906281
      ],
      "type": "VEC3"
    },
    {
      "bufferView": 1,
      "byteOffset": 312924,
      "componentType": 5126,
      "count": 18529,
      "max": [
        0.99984782934188843,
        0.99997961521148682,
        0.9998055100440979
      ],
      "min": [
        -0.99984723329544067,
        -0.999855637550354,
        -0.99996441602706909
      ],
      "type": "VEC3"
    },
    {
      "bufferView": 2,
      "byteOffset": 60384,
      "componentType": 5126,
      "count": 18529,
      "max": [
        0.99607843160629272,
        0.99607843160629272,
        0.99607843160629272,
        1
      ],
      "min": [
        0.058823529630899429,
        0.035294119268655777,
        0.039215687662363052,
        1
      ],
      "type": "VEC4"
    },
    {
      "bufferView": 0,
      "byteOffset": 71232,
      "componentType": 5125,
      "count": 111150,
      "max": [
        18528
      ],
      "min": [
        0
      ],
      "type": "SCALAR"
    },
    {
      "bufferView": 1,
      "byteOffset": 535272,
      "componentType": 5126,
      "count": 3076,
      "max": [
        0.48939484357833862,
        -0.67024999856948853,
        0.36313891410827637
      ],
      "min": [
        -0.48939484357833862,
        -1.0151965618133545,
        -0.18065991997718811
      ],
      "type": "VEC3"
    },
    {
      "bufferView": 1,
      "byteOffset": 572184,
      "componentType": 5126,
      "count": 3076,
      "max": [
        0.99958646297454834,
        0.9995805025100708,
        0.99949169158935547
      ],
      "min": [
        -0.99958646297454834,
        -0.99958866834640503,
        -0.99822735786437988
      ],
      "type": "VEC3"
    },
    {
      "bufferView": 2,
      "byteOffset": 356848,
      "componentType": 5126,
      "count": 3076,
      "max": [
        1,
        1,
        1,
        1
      ],
      "min": [
        1,
        1,
        1,
        1
      ],
      "type": "VEC4"
    },
    {
      "bufferView": 0,
      "byteOffset": 515832,
      "componentType": 5125,
      "count": 18432,
      "max": [
        3075
      ],
      "min": [
        0
      ],
      "type": "SCALAR"
    },
    {
      "bufferView": 1,
      "byteOffset": 609096,
      "componentType": 5126,
      "count": 5332,
      "max": [
        1.4355645179748535,
        0.20402300357818604,
        3.6313512325286865
      ],
      "min": [
        -1.435564398765564,
        -0.3034064769744873,
        2.2404325008392334
      ],
      "type": "VEC3"
    },
    {
      "bufferView": 1,
      "byteOffset": 673080,
      "componentType": 5126,
      "count": 5332,
      "max": [
        0.99949121475219727,
        0.99988102912902832,
        0.97235798835754395
      ],
      "min": [
        -0.99940282106399536,
        -0.99988722801208496,
        -0.99460065364837646
      ],
      "type": "VEC3"
    },
    {
      "bufferView": 2,
      "byteOffset": 406064,
      "componentType": 5126,
      "count": 5332,
      "max": [
        0.99607843160629272,
        0.99607843160629272,
        0.99607843160629272,
        1
      ],
      "min": [
        0.99215686321258545,
        0.70980393886566162,
        0.53333336114883423,
        1
      ],
      "type": "VEC4"
    },
    {
      "bufferView": 0,
      "byteOffset": 589560,
      "componentType": 5125,
      "count": 31788,
      "max": [
        5331
      ],
      "min": [
        0
      ],
      "type": "SCALAR"
    },
    {
      "bufferView": 1,
      "byteOffset": 737064,
      "componentType": 5126,
      "count": 10784,
      "max": [
        0.90877276659011841,
        0.94803428649902344,
        1.2603403329849243
      ],
      "min": [
        -0.90877270698547363,
        -0.94823884963989258,
        -0.29049345850944519
      ],
      "type": "VEC3"
    },
    {
      "bufferView": 1,
      "byteOffset": 866472,
      "componentType": 5126,
      "count": 10784,
      "max": [
        0.99992281198501587,
        0.9999433159828186,
        0.99999791383743286
      ],
      "min": [
        -0.99992287158966064,
        -0.99995392560958862,
        -0.99999988079071045
      ],
      "type": "VEC3"
    },
    {
      "bufferView": 2,
      "byteOffset": 491376,
      "componentType": 5126,
      "count": 10784,
      "max": [
        0.99607843160629272,
        0.99607843160629272,
        0.99607843160629272,
        1
      ],
      "min": [
        0.99215686321258545,
        0.70980393886566162,
        0.53333336114883423,
        1
      ],
      "type": "VEC4"
    },
    {
      "bufferView": 0,
      "byteOffset": 716712,
      "componentType": 5125,
      "count": 64692,
      "max": [
        10783
      ],
      "min": [
        0
      ],
      "type": "SCALAR"
    }
  ],
  "asset": {
    "extras": {
      "author": "Syazani Tahir (https://sketchfab.com/syazani)",
      "license": "CC-BY-4.0 (http://creativecommons.org/licenses/by/4.0/)",
      "source": "https://sketchfab.com/3d-models/cute-cat-9f61bd2757d44637b289ced2d44edc13",
      "title": "Cute Cat"
    },
    "generator": "Sketchfab-8.50.0",
    "version": "2.0"
  },
  "bufferViews": [
    {
      "buffer": 0,
      "byteLength": 975480,
      "byteOffset": 0,
      "name": "floatBufferViews",
      "target": 34963
    },
    {
      "buffer": 0,
      "byteLength": 995880,
      "byteOffset": 975480,
      "byteStride": 12,
      "name": "floatBufferViews",
      "target": 34962
    },
    {
      "buffer": 0,
      "byteLength": 663920,
      "byteOffset": 1971360,
      "byteStride": 16,
      "name": "floatBufferViews",
      "target": 34962
    }
  ],
  "buffers": [
    {
      "byteLength": 2635280,
      "uri": "scene.bin"
    }
  ],
  "materials": [
    {
      "doubleSided": true,
      "name": "material_0",
      "pbrMetallicRoughness": {
        "baseColorFactor": [
          1,
          1,
          1,
          1
        ],
        "metallicFactor": 0,
        "roughnessFactor": 0.28690969118800502
      }
    },
    {
      "doubleSided": true,
      "name": "material_1",
      "pbrMetallicRoughness": {
        "baseColorFactor": [
          1,
          1,
          1,
          1
        ],
        "metallicFactor": 0,
        "roughnessFactor": 0.34771142282132195
      }
    },
    {
      "doubleSided": true,
      "name": "material_2",
      "pbrMetallicRoughness": {
        "baseColorFactor": [
          1,
          1,
          1,
          1
        ],
        "metallicFactor": 0,
        "roughnessFactor": 0.34771142282132195
      }
    },
    {
      "doubleSided": true,
      "name": "material_3",
      "pbrMetallicRoughness": {
        "baseColorFactor": [
          1,
          1,
          1,
          1
        ],
        "metallicFactor": 0,
        "roughnessFactor": 0.37203211547464865
      }
    },
    {
      "doubleSided": true,
      "name": "material_4",
      "pbrMetallicRoughness": {
        "baseColorFactor": [
          1,
          1,
          1,
          1
        ],
        "metallicFactor": 0,
        "roughnessFactor": 0.3537915959846536
      }
    }
  ],
  "meshes": [
    {
      "primitives": [
        {
          "attributes": {
            "COLOR_0": 2,
            "NORMAL": 1,
            "POSITION": 0
          },
          "indices": 3,
          "material": 4,
          "mode": 4
        }
      ]
    },
    {
      "primitives": [
        {
          "attributes": {
            "COLOR_0": 6,
            "NORMAL": 5,
            "POSITION": 4
          },
          "indices": 7,
          "material": 3,
          "mode": 4
        }
      ]
    },
    {
      "primitives": [
        {
          "attributes": {
            "COLOR_0": 10,
            "NORMAL": 9,
            "POSITION": 8
          },
          "indices": 11,
          "material": 2,
          "mode": 4
        }
      ]
    },
    {
      "primitives": [
        {
          "attributes": {
            "COLOR_0": 14,
            "NORMAL": 13,
            "POSITION": 12
          },
          "indices": 15,
          "material": 1,
          "mode": 4
        }
      ]
    },
    {
      "primitives": [
        {
          "attributes": {
            "COLOR_0": 18,
            "NORMAL": 17,
            "POSITION": 16
          },
          "indices": 19,
          "material": 0,
          "mode": 4
        }
      ]
    }
  ],
  "nodes": [
    {
      "children": [
        1
      ],
      "name": "RootNode (gltf orientation matrix)",
      "rotation": [
        -0.70710678118654746,
        -0,
        -0,
        0.70710678118654757
      ]
    },
    {
      "children": [
        2
      ],
      "name": "RootNode (model correction matrix)"
    },
    {
      "children": [
        3,
        5,
        7,
        9,
        11
      ],
      "name": "zbrush_concat.osgb.cleaner.materialmerger.gles"
    },
    {
      "children": [
        4
      ],
      "name": "/sketchfab-data/processing/models/dd80a363707f4190a3b88915a93daf09/9f61bd2757d44637b289ced2d44edc13/59a11c8e8cff47e8881da7853391bbe9/preprocess/SubTool-4-15454348.OBJ"
    },
    {
      "mesh": 0,
      "name": ""
    },
    {
      "children": [
        6
      ],
      "name": "/sketchfab-data/processing/models/dd80a363707f4190a3b88915a93daf09/9f61bd2757d44637b289ced2d44edc13/59a11c8e8cff47e8881da7853391bbe9/preprocess/SubTool-3-3681108.OBJ"
    },
    {
      "mesh": 1,
      "name": ""
    },
    {
      "children": [
        8
      ],
      "name": "/sketchfab-data/processing/models/dd80a363707f4190a3b88915a93daf09/9f61bd2757d44637b289ced2d44edc13/59a11c8e8cff47e8881da7853391bbe9/preprocess/SubTool-2-10233600.OBJ"
    },
    {
      "mesh": 2,
      "name": ""
    },
    {
      "children": [
        10
      ],
      "name": "/sketchfab-data/processing/models/dd80a363707f4190a3b88915a93daf09/9f61bd2757d44637b289ced2d44edc13/59a11c8e8cff47e8881da7853391bbe9/preprocess/SubTool-1-10233600.OBJ"
    },
    {
      "mesh": 3,
      "name": ""
    },
    {
      "children": [
        12
      ],
      "name": "/sketchfab-data/processing/models/dd80a363707f4190a3b88915a93daf09/9f61bd2757d44637b289ced2d44edc13/59a11c8e8cff47e8881da7853391bbe9/preprocess/SubTool-0-10233600.OBJ"
    },
    {
      "mesh": 4,
      "name": ""
    }
  ],
  "scene": 0,
  "scenes": [
    {
      "name": "OSG_Scene",
      "nodes": [
        0
      ]
    }
  ]
}

